PathFileType	4	(X/Y/Z)	C:/Users/opensim2020/Desktop/walking_exp_matlab/subject01_walking05_straight_03.trc																																																																																																																															
DataRate	CameraRate	NumFrames	NumMarkers	Units	OrigDataRate	OrigDataStartFrame	OrigNumFrames																																																																																																																											
100	100	8	43	mm	100	2218	223																																																																																																																											
Frame#	Time	LFHD			RFHD			LBHD			RBHD			C7			T10			CLAV			STRN			RBAK			LSHO			LUPA			LELB			LFRM			LWRA			LWRB			LFIN			RSHO			RUPA			RELB			RFRM			RWRA			RWRB			RFIN			LASI			RASI			LPSI			RPSI			LTHI			LKNE			LTIB			LANK			LHEE			LTOE			RTHI			RKNE			RTIB			RANK			RHEE			RTOE			*39			*40			*41			*42		
		X1	Y1	Z1	X2	Y2	Z2	X3	Y3	Z3	X4	Y4	Z4	X5	Y5	Z5	X6	Y6	Z6	X7	Y7	Z7	X8	Y8	Z8	X9	Y9	Z9	X10	Y10	Z10	X11	Y11	Z11	X12	Y12	Z12	X13	Y13	Z13	X14	Y14	Z14	X15	Y15	Z15	X16	Y16	Z16	X17	Y17	Z17	X18	Y18	Z18	X19	Y19	Z19	X20	Y20	Z20	X21	Y21	Z21	X22	Y22	Z22	X23	Y23	Z23	X24	Y24	Z24	X25	Y25	Z25	X26	Y26	Z26	X27	Y27	Z27	X28	Y28	Z28	X29	Y29	Z29	X30	Y30	Z30	X31	Y31	Z31	X32	Y32	Z32	X33	Y33	Z33	X34	Y34	Z34	X35	Y35	Z35	X36	Y36	Z36	X37	Y37	Z37	X38	Y38	Z38	X39	Y39	Z39	X40	Y40	Z40	X41	Y41	Z41	X42	Y42	Z42	X43	Y43	Z43
																																																																																																																																		
140	1.39	87.85839	1668.48962	-1065.68164	109.99544	1675.70032	-953.19659	-21.73961	1610.29688	-1048.68604	-1.29604	1616.37341	-929.26147	-41.712	1422.81775	-1009.43835	-68.50684	1128.65698	-1006.9635	103.61147	1358.84363	-1015.72803	150.51707	1205.54248	-1030.17969	-89.65262	1221.91589	-937.97144	34.71177	1391.95215	-1172.69067	25.33641	1212.36023	-1264.73633	47.49863	1060.87891	-1282.31262	136.57146	985.81281	-1308.14685	263.66263	932.33447	-1294.02478	220.18105	897.09717	-1315.20129	296.57758	866.18353	-1328.87122	40.62975	1380.54688	-861.9342	-26.36099	1178.7301	-770.04449	-31.83654	1055.82813	-771.90991	-22.33558	937.28223	-740.69873	40.01436	809.14825	-756.84784	-4.02837	817.50403	-719.18756	18.89582	733.66302	-722.92828	95.26237	919.98993	-1132.60107	119.95486	929.5993	-917.5575	-83.40726	936.84875	-1057.39111	-67.05383	940.92023	-912.45569	9.41424	590.64618	-1173.50842	-27.98002	458.64261	-1160.60852	-153.30217	314.547	-1169.12512	-277.43915	132.37955	-1117.04468	-329.64075	130.24364	-1064.5083	-167.89078	32.99684	-1113.62109	129.70689	605.23798	-849.84259	182.45712	457.27988	-879.75433	167.608	281.29797	-869.59338	184.7914	76.27343	-916.39136	139.90804	35.68805	-967.93964	326.09332	43.60494	-919.27435	92.27619	1707.70532	-975.2536	1973.10986	1023.46106	-3102.00488	2012.50891	1022.00781	-3140.63452	NaN	NaN	NaN
141	1.4	96.94131	1669.48193	-1063.12354	119.3521	1676.55725	-950.39825	-12.53447	1611.20203	-1045.94482	8.13994	1617.09204	-926.59705	-32.68278	1423.52478	-1007.07208	-58.86234	1129.40137	-1005.62231	112.84506	1360.06409	-1013.62762	159.98718	1206.76514	-1028.51025	-80.02364	1222.43689	-935.99139	43.92165	1393.52502	-1170.43445	32.60528	1213.72375	-1262.30566	53.49435	1062.30054	-1279.86707	141.45543	985.92474	-1305.82776	267.64526	930.33722	-1291.89246	223.505	895.79303	-1313.01135	299.35699	863.33435	-1326.56421	50.03592	1381.36707	-859.63672	-15.57387	1178.7478	-768.12555	-20.03775	1055.81189	-770.07513	-9.91809	937.44958	-738.93884	53.04657	809.59619	-755.32574	9.17932	817.80304	-717.5108	32.35989	734.04138	-721.28571	105.72927	920.88495	-1130.62769	129.81659	931.14294	-915.62	-72.95927	937.83362	-1056.87842	-57.07259	942.44037	-912.07697	23.92349	590.59558	-1172.70642	-11.95618	458.33597	-1161.06555	-141.68456	317.73785	-1169.42786	-270.85016	139.121	-1117.64319	-321.74203	139.68489	-1064.47327	-167.62799	33.05959	-1113.38184	138.91014	605.94006	-848.76746	189.29295	456.87454	-878.68738	171.84816	280.87912	-868.51672	185.56906	75.82745	-916.4101	140.06197	35.76753	-967.69403	326.73367	42.5685	-919.97314	101.37322	1708.52893	-972.46582	1973.05835	1023.43304	-3101.92627	2012.54639	1021.97375	-3140.698	NaN	NaN	NaN
142	1.41	106.08398	1670.45361	-1060.60632	128.70584	1677.40259	-947.91022	-3.34761	1612.14673	-1043.37756	17.41504	1617.84912	-924.02936	-23.5948	1424.35754	-1004.70148	-49.37155	1130.26465	-1004.1568	121.92622	1361.30249	-1011.62622	169.37683	1208.00439	-1026.9325	-70.45238	1223.11816	-934.02167	52.97457	1395.099	-1168.22437	39.99089	1215.25269	-1260.06885	59.28436	1063.77295	-1277.42029	146.02357	986.01868	-1303.39026	271.32336	928.22974	-1289.74109	226.53865	894.32568	-1310.51013	301.73798	860.59265	-1324.46936	59.45487	1382.02588	-857.57257	-4.6488	1178.87134	-766.30841	-8.10123	1056.09094	-768.18237	2.78769	937.8324	-737.16504	66.43158	810.36145	-753.78772	22.63102	818.29114	-715.83545	46.26764	734.59381	-719.69104	116.11843	921.96912	-1128.48975	139.59506	932.7746	-913.4256	-62.62651	938.83313	-1056.18347	-47.41665	943.92444	-911.17993	39.03688	590.4657	-1172.37598	4.68001	458.05884	-1162.40002	-129.36372	321.31009	-1169.96875	-263.03363	146.22147	-1118.47351	-312.43887	149.83614	-1064.6499	-167.32693	33.1893	-1112.97961	147.97548	606.45697	-847.67834	195.23308	456.62134	-877.3681	175.50601	280.89648	-867.85773	186.11618	75.71576	-916.64252	140.13097	35.89247	-967.76532	327.30484	41.81658	-920.87366	110.5963	1709.3197	-969.80469	1973.12085	1023.31842	-3101.93823	2012.64148	1022.10089	-3140.69775	NaN	NaN	NaN
143	1.42	115.28716	1671.40491	-1058.06116	137.90239	1678.06653	-945.44812	5.82526	1613.10999	-1040.8739	26.6303	1618.63379	-921.63861	-14.45556	1425.29565	-1002.43903	-39.9434	1131.19507	-1002.61377	131.00497	1362.45337	-1009.77557	178.46556	1209.16699	-1025.39636	-60.89522	1223.90979	-931.82025	61.83022	1396.66467	-1166.06897	47.43676	1216.89099	-1258.06799	64.85368	1065.2179	-1275.08984	150.34305	986.04254	-1301.20081	274.67624	925.98914	-1287.62097	229.233	892.86755	-1308.15076	303.73901	857.70679	-1322.32629	68.84046	1382.86316	-855.60193	6.37301	1179.17737	-764.42383	3.79868	1056.58679	-766.24561	15.65064	938.38464	-735.37512	80.095	811.33264	-752.14319	36.35008	819.05182	-714.23956	60.31388	735.3573	-718.06506	126.30161	923.11877	-1126.22314	149.35342	934.39496	-911.13263	-52.44247	939.73669	-1055.25952	-38.64757	945.58466	-909.9856	54.51358	590.26068	-1172.70667	21.986	457.79999	-1163.59583	-116.05725	325.10464	-1170.77979	-253.97044	153.50587	-1119.80676	-301.78281	159.78992	-1064.9917	-167.00179	33.31817	-1112.3053	156.44789	607.05206	-846.29181	200.48912	456.61102	-875.77441	178.68823	280.68854	-867.41656	186.45427	75.8766	-916.6972	140.1745	35.95202	-967.50177	327.70224	41.19915	-921.27783	119.90311	1710.15259	-967.23431	1973.10449	1023.25836	-3101.95435	2012.58838	1022.04828	-3140.65918	NaN	NaN	NaN
144	1.43	124.52384	1672.23059	-1055.53296	147.08324	1678.78186	-942.99591	14.97716	1614.06287	-1038.66211	35.74717	1619.34021	-919.36969	-5.21205	1426.08093	-1000.09375	-30.60442	1132.11365	-1000.99567	140.05447	1363.57532	-1008.03278	187.70039	1210.21899	-1023.93402	-51.55908	1224.88013	-929.49957	70.58769	1398.16492	-1164.03906	54.91821	1218.49902	-1256.38623	70.28761	1066.60999	-1272.8053	154.44072	985.92108	-1298.92139	277.82443	923.60907	-1285.49963	231.64568	891.3479	-1305.94189	305.53906	854.66406	-1320.11523	78.45865	1383.82971	-853.68237	17.3848	1179.64819	-762.38672	15.73171	1057.07922	-764.28699	28.65508	939.01294	-733.58472	93.86294	812.40881	-750.51471	50.23215	819.79388	-712.34924	75.02766	736.28314	-716.39264	136.12498	924.26111	-1123.94946	158.64551	935.8396	-909.09448	-42.58261	940.50629	-1054.03137	-28.91445	946.64911	-908.70709	70.31393	589.98285	-1172.89026	39.38243	457.51999	-1164.84473	-101.79797	328.98795	-1171.66553	-243.74796	160.62151	-1121.51257	-289.93097	169.40425	-1065.93909	-165.97423	33.55614	-1111.95691	163.59784	607.69281	-844.89935	205.29739	456.24097	-874.81409	181.19783	280.56339	-866.97113	186.63205	75.82657	-916.63745	140.11465	35.92231	-967.44476	328.01843	40.82772	-921.2655	129.02922	1710.88696	-964.99084	1973.10034	1023.34265	-3102.01929	2012.4729	1021.90326	-3140.71484	NaN	NaN	NaN
145	1.44	133.72641	1673.09265	-1053.31897	156.12604	1679.33887	-940.6839	24.151	1614.98157	-1036.67712	44.6841	1619.99109	-917.3266	3.78223	1426.81421	-998.06287	-21.28922	1133.02271	-999.25165	149.0174	1364.54663	-1006.45538	196.93391	1211.21021	-1022.58148	-42.03165	1225.74878	-927.08673	79.17522	1399.5575	-1162.05347	62.41619	1220.07239	-1254.85889	75.6265	1067.90771	-1270.57764	158.33371	985.62592	-1296.78381	280.7923	921.06982	-1283.4104	233.95097	889.73669	-1303.88794	307.2767	851.30615	-1317.69861	88.05855	1384.70862	-852.01788	28.42966	1180.05701	-760.29852	27.74673	1057.54468	-762.42017	41.75685	939.64124	-731.7168	108.07771	813.62848	-748.86285	64.51501	820.65613	-710.6944	90.00726	737.47247	-714.59222	145.69098	925.31097	-1121.74744	168.00488	936.95837	-906.87067	-33.12416	940.87238	-1052.61755	-19.15103	947.37543	-907.48999	86.21038	589.71234	-1173.03662	56.89716	457.20987	-1165.85364	-86.66544	332.70511	-1172.38879	-232.54042	167.0087	-1123.44092	-277.03662	178.77586	-1067.60486	-164.10112	34.2545	-1112.17053	169.90979	608.0708	-843.38403	210.10979	456.09857	-873.57874	183.67221	280.3237	-866.22113	186.87497	75.68961	-916.50812	140.03038	35.96744	-967.35889	328.15677	40.52803	-921.27173	138.24814	1711.63782	-962.38733	1973.10596	1023.55548	-3101.93213	2012.48328	1022.04205	-3140.61475	NaN	NaN	NaN
146	1.45	142.90056	1673.93115	-1051.1698	165.12022	1679.87305	-938.41711	33.23705	1615.80933	-1034.82922	53.63163	1620.59753	-915.43121	12.61421	1427.62158	-996.07379	-12.11857	1133.83557	-997.47296	157.9628	1365.45435	-1004.96271	205.84837	1212.11169	-1021.33698	-32.52983	1226.6228	-924.66974	87.64494	1400.8114	-1160.22449	69.84017	1221.56018	-1253.54395	80.7925	1068.92004	-1268.39417	162.06583	985.17755	-1294.8623	283.55527	918.36206	-1281.37305	236.13072	888.03088	-1301.90247	308.74252	847.95636	-1315.44897	97.58298	1385.48718	-850.37744	39.63135	1180.58984	-758.16107	39.67691	1058.06348	-760.50189	54.93003	940.29321	-729.82574	122.46963	814.87708	-747.23871	78.72454	821.42462	-708.89423	105.18069	738.32385	-713.06256	154.96362	926.26288	-1119.76746	177.27702	937.97723	-904.96167	-23.84287	941.46393	-1051.03882	-9.91959	948.49316	-905.95142	101.98696	589.53198	-1173.13794	74.4433	457.01688	-1166.60132	-70.77212	336.21246	-1173.14282	-219.84984	173.29608	-1125.62903	-263.70029	187.6127	-1070.0636	-160.14915	36.4222	-1112.48755	175.39864	608.29846	-842.18378	214.32855	455.6658	-872.2254	185.46729	280.41861	-865.62463	186.93028	75.62029	-916.336	139.99202	36.02464	-967.27679	328.26688	40.3121	-921.19586	147.21622	1712.14673	-960.24994	1973.10474	1023.89227	-3101.86768	2012.44617	1021.90302	-3140.61841	NaN	NaN	NaN
147	1.46	152.05891	1674.66431	-1049.10291	173.97627	1680.4917	-936.25104	42.32247	1616.63599	-1033.12244	62.37561	1621.21558	-913.6933	21.48823	1428.21936	-994.14227	-2.87943	1134.5177	-995.67896	166.87361	1366.19348	-1003.56641	214.81163	1212.91296	-1020.19403	-23.18945	1227.46301	-922.28308	96.10602	1401.84937	-1158.50159	77.11833	1222.89954	-1252.31006	86.02831	1069.87122	-1266.31482	165.67093	984.50989	-1293.01819	286.22064	915.48035	-1279.34326	238.17741	886.20721	-1300.07544	310.23416	844.48822	-1313.15576	107.15466	1386.0863	-848.91534	51.24726	1181.26404	-755.85956	51.57987	1058.49072	-758.5517	68.27234	940.8017	-727.96259	137.10783	816.19135	-745.57867	93.30429	822.27423	-707.19922	120.87042	739.40729	-711.40942	163.94211	927.04437	-1118.0011	186.35143	938.77472	-903.17981	-14.88921	941.69183	-1049.33276	-0.76028	949.53406	-904.27533	117.52772	589.58899	-1173.229	92.07252	456.91977	-1167.12903	-54.03226	339.27466	-1174.0509	-205.98958	179.40428	-1127.51733	-250.26945	195.76007	-1072.74695	-153.40868	39.98909	-1113.21765	180.76558	608.466	-840.75995	218.05673	455.29404	-870.7887	187.30647	280.13541	-864.81378	186.97882	75.49258	-916.14362	139.80711	36.06784	-967.09479	328.41705	40.08125	-921.07788	156.23325	1712.82678	-957.93018	1973.10168	1023.74066	-3101.97461	2012.59656	1022.02429	-3140.63721	NaN	NaN	NaN
